<svg width="21" height="20" viewBox="0 0 21 20" fill="none" xmlns="http://www.w3.org/2000/svg">
<g clip-path="url(#clip0)">
<path d="M6.72055 5.00016H19.9369C20.156 5.00016 20.3661 4.91237 20.521 4.75608C20.6759 4.5998 20.763 4.38784 20.763 4.16683C20.763 3.94582 20.6759 3.73385 20.521 3.57757C20.3661 3.42129 20.156 3.3335 19.9369 3.3335H6.72055C6.50148 3.3335 6.29138 3.42129 6.13647 3.57757C5.98156 3.73385 5.89453 3.94582 5.89453 4.16683C5.89453 4.38784 5.98156 4.5998 6.13647 4.75608C6.29138 4.91237 6.50148 5.00016 6.72055 5.00016Z" fill="white"/>
<path d="M19.9369 9.1665H6.72055C6.50148 9.1665 6.29138 9.2543 6.13647 9.41058C5.98156 9.56686 5.89453 9.77882 5.89453 9.99984C5.89453 10.2209 5.98156 10.4328 6.13647 10.5891C6.29138 10.7454 6.50148 10.8332 6.72055 10.8332H19.9369C20.156 10.8332 20.3661 10.7454 20.521 10.5891C20.6759 10.4328 20.763 10.2209 20.763 9.99984C20.763 9.77882 20.6759 9.56686 20.521 9.41058C20.3661 9.2543 20.156 9.1665 19.9369 9.1665Z" fill="white"/>
<path d="M19.9369 15H6.72055C6.50148 15 6.29138 15.0878 6.13647 15.2441C5.98156 15.4004 5.89453 15.6123 5.89453 15.8333C5.89453 16.0543 5.98156 16.2663 6.13647 16.4226C6.29138 16.5789 6.50148 16.6667 6.72055 16.6667H19.9369C20.156 16.6667 20.3661 16.5789 20.521 16.4226C20.6759 16.2663 20.763 16.0543 20.763 15.8333C20.763 15.6123 20.6759 15.4004 20.521 15.2441C20.3661 15.0878 20.156 15 19.9369 15Z" fill="white"/>
<path d="M2.59052 5.83333C3.50292 5.83333 4.24257 5.08714 4.24257 4.16667C4.24257 3.24619 3.50292 2.5 2.59052 2.5C1.67812 2.5 0.938477 3.24619 0.938477 4.16667C0.938477 5.08714 1.67812 5.83333 2.59052 5.83333Z" fill="white"/>
<path d="M2.59052 11.6668C3.50292 11.6668 4.24257 10.9206 4.24257 10.0002C4.24257 9.07969 3.50292 8.3335 2.59052 8.3335C1.67812 8.3335 0.938477 9.07969 0.938477 10.0002C0.938477 10.9206 1.67812 11.6668 2.59052 11.6668Z" fill="white"/>
<path d="M2.59052 17.4998C3.50292 17.4998 4.24257 16.7536 4.24257 15.8332C4.24257 14.9127 3.50292 14.1665 2.59052 14.1665C1.67812 14.1665 0.938477 14.9127 0.938477 15.8332C0.938477 16.7536 1.67812 17.4998 2.59052 17.4998Z" fill="white"/>
</g>
<defs>
<clipPath id="clip0">
<rect width="19.8246" height="20" fill="white" transform="translate(0.938477)"/>
</clipPath>
</defs>
</svg>
