<svg width="24" height="24" viewBox="0 0 24 24" fill="none" xmlns="http://www.w3.org/2000/svg">
<path d="M1.6068 18C1.80362 18.3416 2.06585 18.6411 2.37848 18.8812C2.69111 19.1214 3.04802 19.2976 3.4288 19.3998C3.80958 19.502 4.20676 19.5281 4.59764 19.4766C4.98851 19.4252 5.36542 19.2972 5.7068 19.1L6.1518 18.843C6.99181 19.5617 7.95734 20.119 8.9998 20.487V21C8.9998 21.7956 9.31587 22.5587 9.87848 23.1213C10.4411 23.6839 11.2041 24 11.9998 24C12.7954 24 13.5585 23.6839 14.1211 23.1213C14.6837 22.5587 14.9998 21.7956 14.9998 21V20.487C16.0424 20.1184 17.008 19.5604 17.8478 18.841L18.2948 19.099C18.9844 19.4968 19.8037 19.6044 20.5726 19.3981C21.3415 19.1918 21.997 18.6886 22.3948 17.999C22.7926 17.3094 22.9002 16.4901 22.6939 15.7212C22.4876 14.9523 21.9844 14.2968 21.2948 13.899L20.8508 13.643C21.0507 12.5554 21.0507 11.4406 20.8508 10.353L21.2948 10.097C21.6362 9.90002 21.9355 9.63771 22.1756 9.32506C22.4157 9.01241 22.5918 8.65554 22.6939 8.27482C22.7961 7.8941 22.8222 7.49699 22.7709 7.10616C22.7196 6.71533 22.5918 6.33844 22.3948 5.997C22.1978 5.65556 21.9355 5.35627 21.6229 5.1162C21.3102 4.87614 20.9533 4.70001 20.5726 4.59786C20.1919 4.49572 19.7948 4.46956 19.404 4.52089C19.0131 4.57221 18.6362 4.70002 18.2948 4.897L17.8498 5.154C17.009 4.43617 16.0427 3.87983 14.9998 3.513V3C14.9998 2.20435 14.6837 1.44129 14.1211 0.87868C13.5585 0.31607 12.7954 0 11.9998 0C11.2041 0 10.4411 0.31607 9.87848 0.87868C9.31587 1.44129 8.9998 2.20435 8.9998 3V3.513C7.95719 3.88157 6.99165 4.4396 6.1518 5.159L5.7048 4.9C5.01524 4.50218 4.19588 4.39457 3.42698 4.60086C2.65808 4.80715 2.00262 5.31044 1.6048 6C1.20697 6.68956 1.09937 7.50892 1.30566 8.27782C1.51195 9.04672 2.01524 9.70218 2.7048 10.1L3.1488 10.356C2.94891 11.4436 2.94891 12.5584 3.1488 13.646L2.7048 13.902C2.01699 14.301 1.51528 14.9562 1.30949 15.7242C1.10371 16.4923 1.21061 17.3106 1.6068 18ZM11.9998 8C12.7909 8 13.5643 8.2346 14.2221 8.67412C14.8799 9.11365 15.3926 9.73836 15.6953 10.4693C15.9981 11.2002 16.0773 12.0044 15.9229 12.7804C15.7686 13.5563 15.3876 14.269 14.8282 14.8284C14.2688 15.3878 13.5561 15.7688 12.7802 15.9231C12.0042 16.0775 11.2 15.9983 10.4691 15.6955C9.73816 15.3928 9.11345 14.8801 8.67392 14.2223C8.2344 13.5645 7.9998 12.7911 7.9998 12C7.9998 10.9391 8.42123 9.92172 9.17137 9.17157C9.92152 8.42143 10.9389 8 11.9998 8Z" fill="white" fill-opacity="0.5"/>
</svg>
